<?xml version="1.0" encoding="UTF-8" standalone="no"?>
<svg
   width="24"
   height="24"
   viewBox="0 0 24 24"
   fill="#000000"
   version="1.1"
   id="svg1"
   xmlns="http://www.w3.org/2000/svg"
   xmlns:svg="http://www.w3.org/2000/svg">
  <defs
     id="defs1" />
  <path
     d="M 12.5,4.25194 C 12.5,3.73196 11.9837,3.36976 11.4948,3.54669 L 4.65454,6.02188 C 3.96161,6.27262 3.5,6.93056 3.5,7.66746 v 6.08164 c 0,0.52 0.51625,0.8822 1.0052,0.7053 L 5,14.2753 v 1.5952 C 3.5378,16.388 2,15.3035 2,13.7491 V 7.66746 C 2,6.29894 2.85728,5.07704 4.14414,4.61138 L 10.9844,2.1362 C 12.4512,1.60541 14,2.69202 14,4.25194 v 0.17701 l -1.5,0.54279 z m 4,3 C 16.5,6.73196 15.9837,6.36976 15.4948,6.54669 L 8.32467,9.14124 C 7.82972,9.32034 7.5,9.7903 7.5,10.3167 v 6.4324 c 0,0.52 0.51625,0.8822 1.0052,0.7053 L 9,17.2753 v 1.5952 C 7.5378,19.388 6,18.3035 6,16.7491 V 10.3167 C 6,9.15868 6.72539,8.12477 7.81427,7.73075 L 14.9844,5.1362 C 16.4512,4.60541 18,5.69202 18,7.25194 v 0.17701 l -1.5,0.54279 z m 2.9948,2.29473 C 19.9837,9.36975 20.5,9.73195 20.5,10.2519 v 6.7833 c 0,0.3158 -0.1978,0.5978 -0.4948,0.7052 l -7.5,2.714 C 12.0163,20.6313 11.5,20.2691 11.5,19.7491 v -6.7833 c 0,-0.3158 0.1978,-0.5978 0.4948,-0.7052 z M 22,10.2519 C 22,8.692 20.4512,7.60539 18.9844,8.13618 l -7.5,2.71392 C 10.5935,11.1725 10,12.0184 10,12.9658 v 6.7833 c 0,1.5599 1.5488,2.6465 3.0156,2.1158 l 7.5,-2.714 C 21.4065,18.8286 22,17.9826 22,17.0352 Z"
     fill="#{0}"
     id="path1" />
</svg>
